<mxfile host="app.diagrams.net" modified="2024-05-27T15:18:15.455Z" agent="Mozilla/5.0 (Windows NT 10.0; Win64; x64) AppleWebKit/537.36 (KHTML, like Gecko) Chrome/125.0.0.0 Safari/537.36 Edg/125.0.0.0" etag="Hs8sQdZOW7lCOSvraesl" version="24.4.9" type="device" pages="4">
  <diagram id="ZifkuC1Rwi4fi7cdWBrY" name="ER">
    <mxGraphModel dx="1739" dy="1559" grid="0" gridSize="10" guides="1" tooltips="1" connect="1" arrows="1" fold="1" page="0" pageScale="1" pageWidth="850" pageHeight="1100" math="0" shadow="0">
      <root>
        <mxCell id="0" />
        <mxCell id="1" parent="0" />
        <mxCell id="gONZldmsj2n86TQ6euHQ-13" style="edgeStyle=none;curved=1;rounded=0;orthogonalLoop=1;jettySize=auto;html=1;fontSize=12;startSize=8;endSize=8;strokeColor=default;endArrow=none;endFill=0;" parent="1" source="gONZldmsj2n86TQ6euHQ-1" target="gONZldmsj2n86TQ6euHQ-2" edge="1">
          <mxGeometry relative="1" as="geometry" />
        </mxCell>
        <mxCell id="gONZldmsj2n86TQ6euHQ-15" style="edgeStyle=none;curved=1;rounded=0;orthogonalLoop=1;jettySize=auto;html=1;fontFamily=Helvetica;fontSize=12;fontColor=default;startSize=8;endSize=8;endArrow=none;endFill=0;" parent="1" source="gONZldmsj2n86TQ6euHQ-1" target="gONZldmsj2n86TQ6euHQ-3" edge="1">
          <mxGeometry relative="1" as="geometry" />
        </mxCell>
        <mxCell id="gONZldmsj2n86TQ6euHQ-16" style="edgeStyle=none;curved=1;rounded=0;orthogonalLoop=1;jettySize=auto;html=1;strokeColor=default;align=center;verticalAlign=middle;fontFamily=Helvetica;fontSize=12;fontColor=default;labelBackgroundColor=default;startSize=8;endArrow=none;endFill=0;endSize=8;" parent="1" source="gONZldmsj2n86TQ6euHQ-1" target="gONZldmsj2n86TQ6euHQ-5" edge="1">
          <mxGeometry relative="1" as="geometry" />
        </mxCell>
        <mxCell id="gONZldmsj2n86TQ6euHQ-18" style="edgeStyle=none;curved=1;rounded=0;orthogonalLoop=1;jettySize=auto;html=1;strokeColor=default;align=center;verticalAlign=middle;fontFamily=Helvetica;fontSize=12;fontColor=default;labelBackgroundColor=default;startSize=8;endArrow=none;endFill=0;endSize=8;" parent="1" source="gONZldmsj2n86TQ6euHQ-1" target="gONZldmsj2n86TQ6euHQ-7" edge="1">
          <mxGeometry relative="1" as="geometry" />
        </mxCell>
        <mxCell id="gONZldmsj2n86TQ6euHQ-19" style="edgeStyle=none;curved=1;rounded=0;orthogonalLoop=1;jettySize=auto;html=1;strokeColor=default;align=center;verticalAlign=middle;fontFamily=Helvetica;fontSize=12;fontColor=default;labelBackgroundColor=default;startSize=8;endArrow=none;endFill=0;endSize=8;" parent="1" source="gONZldmsj2n86TQ6euHQ-1" target="gONZldmsj2n86TQ6euHQ-6" edge="1">
          <mxGeometry relative="1" as="geometry" />
        </mxCell>
        <mxCell id="gONZldmsj2n86TQ6euHQ-26" style="edgeStyle=none;curved=1;rounded=0;orthogonalLoop=1;jettySize=auto;html=1;strokeColor=default;align=center;verticalAlign=middle;fontFamily=Helvetica;fontSize=12;fontColor=default;labelBackgroundColor=default;startSize=8;endArrow=none;endFill=0;endSize=8;" parent="1" source="gONZldmsj2n86TQ6euHQ-1" target="gONZldmsj2n86TQ6euHQ-27" edge="1">
          <mxGeometry relative="1" as="geometry">
            <mxPoint x="344" y="-445" as="targetPoint" />
          </mxGeometry>
        </mxCell>
        <mxCell id="gONZldmsj2n86TQ6euHQ-1" value="Conference" style="rounded=0;whiteSpace=wrap;html=1;" parent="1" vertex="1">
          <mxGeometry x="140" y="-421" width="120" height="59" as="geometry" />
        </mxCell>
        <mxCell id="gONZldmsj2n86TQ6euHQ-2" value="Name" style="ellipse;whiteSpace=wrap;html=1;" parent="1" vertex="1">
          <mxGeometry x="-17" y="-496" width="77" height="49" as="geometry" />
        </mxCell>
        <mxCell id="gONZldmsj2n86TQ6euHQ-3" value="Start Date" style="ellipse;whiteSpace=wrap;html=1;" parent="1" vertex="1">
          <mxGeometry x="63" y="-550" width="77" height="49" as="geometry" />
        </mxCell>
        <mxCell id="gONZldmsj2n86TQ6euHQ-5" value="End&amp;nbsp;&lt;span style=&quot;background-color: initial;&quot;&gt;Date&lt;/span&gt;" style="ellipse;whiteSpace=wrap;html=1;" parent="1" vertex="1">
          <mxGeometry x="155" y="-567" width="77" height="49" as="geometry" />
        </mxCell>
        <mxCell id="gONZldmsj2n86TQ6euHQ-6" value="Location" style="ellipse;whiteSpace=wrap;html=1;" parent="1" vertex="1">
          <mxGeometry x="-84" y="-424" width="77" height="49" as="geometry" />
        </mxCell>
        <mxCell id="gONZldmsj2n86TQ6euHQ-7" value="Website" style="ellipse;whiteSpace=wrap;html=1;" parent="1" vertex="1">
          <mxGeometry x="12" y="-351" width="77" height="49" as="geometry" />
        </mxCell>
        <mxCell id="gONZldmsj2n86TQ6euHQ-8" value="Description" style="ellipse;whiteSpace=wrap;html=1;" parent="1" vertex="1">
          <mxGeometry x="322" y="-564" width="77" height="49" as="geometry" />
        </mxCell>
        <mxCell id="gONZldmsj2n86TQ6euHQ-11" style="edgeStyle=none;curved=1;rounded=0;orthogonalLoop=1;jettySize=auto;html=1;exitX=0.75;exitY=1;exitDx=0;exitDy=0;fontSize=12;startSize=8;endSize=8;" parent="1" source="gONZldmsj2n86TQ6euHQ-1" target="gONZldmsj2n86TQ6euHQ-1" edge="1">
          <mxGeometry relative="1" as="geometry" />
        </mxCell>
        <mxCell id="gONZldmsj2n86TQ6euHQ-17" style="edgeStyle=none;curved=1;rounded=0;orthogonalLoop=1;jettySize=auto;html=1;strokeColor=default;align=center;verticalAlign=middle;fontFamily=Helvetica;fontSize=12;fontColor=default;labelBackgroundColor=default;startSize=8;endArrow=none;endFill=0;endSize=8;" parent="1" source="gONZldmsj2n86TQ6euHQ-1" target="gONZldmsj2n86TQ6euHQ-8" edge="1">
          <mxGeometry relative="1" as="geometry" />
        </mxCell>
        <mxCell id="gONZldmsj2n86TQ6euHQ-27" value="&lt;u&gt;ID&lt;/u&gt;" style="ellipse;whiteSpace=wrap;html=1;rounded=0;strokeColor=default;align=center;verticalAlign=middle;fontFamily=Helvetica;fontSize=12;fontColor=default;labelBackgroundColor=default;fillColor=default;" parent="1" vertex="1">
          <mxGeometry x="235" y="-631" width="98" height="56" as="geometry" />
        </mxCell>
        <mxCell id="gONZldmsj2n86TQ6euHQ-39" style="edgeStyle=none;curved=1;rounded=0;orthogonalLoop=1;jettySize=auto;html=1;strokeColor=default;align=center;verticalAlign=middle;fontFamily=Helvetica;fontSize=12;fontColor=default;labelBackgroundColor=default;startSize=8;endArrow=none;endFill=0;endSize=8;" parent="1" source="gONZldmsj2n86TQ6euHQ-34" target="gONZldmsj2n86TQ6euHQ-38" edge="1">
          <mxGeometry relative="1" as="geometry" />
        </mxCell>
        <mxCell id="gONZldmsj2n86TQ6euHQ-34" value="Source" style="rounded=0;whiteSpace=wrap;html=1;strokeColor=default;align=center;verticalAlign=middle;fontFamily=Helvetica;fontSize=12;fontColor=default;labelBackgroundColor=default;fillColor=default;" parent="1" vertex="1">
          <mxGeometry x="336" y="-132" width="120" height="60" as="geometry" />
        </mxCell>
        <mxCell id="gONZldmsj2n86TQ6euHQ-35" value="Name" style="ellipse;whiteSpace=wrap;html=1;rounded=0;strokeColor=default;align=center;verticalAlign=middle;fontFamily=Helvetica;fontSize=12;fontColor=default;labelBackgroundColor=default;fillColor=default;" parent="1" vertex="1">
          <mxGeometry x="601" y="-80" width="83" height="50" as="geometry" />
        </mxCell>
        <mxCell id="gONZldmsj2n86TQ6euHQ-36" style="edgeStyle=none;curved=1;rounded=0;orthogonalLoop=1;jettySize=auto;html=1;strokeColor=default;align=center;verticalAlign=middle;fontFamily=Helvetica;fontSize=12;fontColor=default;labelBackgroundColor=default;startSize=8;endArrow=none;endFill=0;endSize=8;" parent="1" source="gONZldmsj2n86TQ6euHQ-34" target="gONZldmsj2n86TQ6euHQ-35" edge="1">
          <mxGeometry relative="1" as="geometry" />
        </mxCell>
        <mxCell id="gONZldmsj2n86TQ6euHQ-38" value="&lt;u&gt;ID&lt;/u&gt;" style="ellipse;whiteSpace=wrap;html=1;rounded=0;strokeColor=default;align=center;verticalAlign=middle;fontFamily=Helvetica;fontSize=12;fontColor=default;labelBackgroundColor=default;fillColor=default;" parent="1" vertex="1">
          <mxGeometry x="514" y="-220" width="83" height="50" as="geometry" />
        </mxCell>
        <mxCell id="gONZldmsj2n86TQ6euHQ-41" style="edgeStyle=none;curved=1;rounded=0;orthogonalLoop=1;jettySize=auto;html=1;strokeColor=default;align=center;verticalAlign=middle;fontFamily=Helvetica;fontSize=12;fontColor=default;labelBackgroundColor=default;startSize=8;endArrow=baseDash;endFill=0;endSize=8;" parent="1" source="gONZldmsj2n86TQ6euHQ-40" target="gONZldmsj2n86TQ6euHQ-1" edge="1">
          <mxGeometry relative="1" as="geometry" />
        </mxCell>
        <mxCell id="gONZldmsj2n86TQ6euHQ-42" style="edgeStyle=none;curved=1;rounded=0;orthogonalLoop=1;jettySize=auto;html=1;strokeColor=default;align=center;verticalAlign=middle;fontFamily=Helvetica;fontSize=12;fontColor=default;labelBackgroundColor=default;startSize=8;endArrow=ERmany;endFill=0;endSize=8;" parent="1" source="gONZldmsj2n86TQ6euHQ-40" target="gONZldmsj2n86TQ6euHQ-34" edge="1">
          <mxGeometry relative="1" as="geometry" />
        </mxCell>
        <mxCell id="gONZldmsj2n86TQ6euHQ-46" style="edgeStyle=none;curved=1;rounded=0;orthogonalLoop=1;jettySize=auto;html=1;strokeColor=default;align=center;verticalAlign=middle;fontFamily=Helvetica;fontSize=12;fontColor=default;labelBackgroundColor=default;startSize=8;endArrow=none;endFill=0;endSize=8;" parent="1" source="gONZldmsj2n86TQ6euHQ-40" target="gONZldmsj2n86TQ6euHQ-47" edge="1">
          <mxGeometry relative="1" as="geometry">
            <mxPoint x="496" y="-277" as="targetPoint" />
          </mxGeometry>
        </mxCell>
        <mxCell id="gONZldmsj2n86TQ6euHQ-40" value="Has" style="rhombus;whiteSpace=wrap;html=1;rounded=0;strokeColor=default;align=center;verticalAlign=middle;fontFamily=Helvetica;fontSize=12;fontColor=default;labelBackgroundColor=default;fillColor=default;" parent="1" vertex="1">
          <mxGeometry x="353" y="-305" width="80" height="80" as="geometry" />
        </mxCell>
        <mxCell id="gONZldmsj2n86TQ6euHQ-47" value="sourceID" style="ellipse;whiteSpace=wrap;html=1;rounded=0;strokeColor=default;align=center;verticalAlign=middle;fontFamily=Helvetica;fontSize=12;fontColor=default;labelBackgroundColor=default;fillColor=default;" parent="1" vertex="1">
          <mxGeometry x="509" y="-338" width="86" height="54" as="geometry" />
        </mxCell>
        <mxCell id="gONZldmsj2n86TQ6euHQ-48" style="edgeStyle=none;curved=1;rounded=0;orthogonalLoop=1;jettySize=auto;html=1;strokeColor=default;align=center;verticalAlign=middle;fontFamily=Helvetica;fontSize=12;fontColor=default;labelBackgroundColor=default;startSize=8;endArrow=none;endFill=0;endSize=8;" parent="1" source="gONZldmsj2n86TQ6euHQ-49" target="gONZldmsj2n86TQ6euHQ-52" edge="1">
          <mxGeometry relative="1" as="geometry" />
        </mxCell>
        <mxCell id="gONZldmsj2n86TQ6euHQ-49" value="Topic" style="rounded=0;whiteSpace=wrap;html=1;strokeColor=default;align=center;verticalAlign=middle;fontFamily=Helvetica;fontSize=12;fontColor=default;labelBackgroundColor=default;fillColor=default;" parent="1" vertex="1">
          <mxGeometry x="-172" y="-151" width="120" height="60" as="geometry" />
        </mxCell>
        <mxCell id="gONZldmsj2n86TQ6euHQ-50" value="Name" style="ellipse;whiteSpace=wrap;html=1;rounded=0;strokeColor=default;align=center;verticalAlign=middle;fontFamily=Helvetica;fontSize=12;fontColor=default;labelBackgroundColor=default;fillColor=default;" parent="1" vertex="1">
          <mxGeometry x="-48" y="16" width="83" height="50" as="geometry" />
        </mxCell>
        <mxCell id="gONZldmsj2n86TQ6euHQ-51" style="edgeStyle=none;curved=1;rounded=0;orthogonalLoop=1;jettySize=auto;html=1;strokeColor=default;align=center;verticalAlign=middle;fontFamily=Helvetica;fontSize=12;fontColor=default;labelBackgroundColor=default;startSize=8;endArrow=none;endFill=0;endSize=8;" parent="1" source="gONZldmsj2n86TQ6euHQ-49" target="gONZldmsj2n86TQ6euHQ-50" edge="1">
          <mxGeometry relative="1" as="geometry" />
        </mxCell>
        <mxCell id="gONZldmsj2n86TQ6euHQ-52" value="&lt;u&gt;ID&lt;/u&gt;" style="ellipse;whiteSpace=wrap;html=1;rounded=0;strokeColor=default;align=center;verticalAlign=middle;fontFamily=Helvetica;fontSize=12;fontColor=default;labelBackgroundColor=default;fillColor=default;" parent="1" vertex="1">
          <mxGeometry x="-203" y="80" width="83" height="50" as="geometry" />
        </mxCell>
        <mxCell id="gONZldmsj2n86TQ6euHQ-53" style="edgeStyle=none;curved=1;rounded=0;orthogonalLoop=1;jettySize=auto;html=1;strokeColor=default;align=center;verticalAlign=middle;fontFamily=Helvetica;fontSize=12;fontColor=default;labelBackgroundColor=default;startSize=8;endArrow=ERmany;endFill=0;endSize=8;" parent="1" source="gONZldmsj2n86TQ6euHQ-55" target="gONZldmsj2n86TQ6euHQ-49" edge="1">
          <mxGeometry relative="1" as="geometry" />
        </mxCell>
        <mxCell id="gONZldmsj2n86TQ6euHQ-58" style="edgeStyle=none;curved=1;rounded=0;orthogonalLoop=1;jettySize=auto;html=1;strokeColor=default;align=center;verticalAlign=middle;fontFamily=Helvetica;fontSize=12;fontColor=default;labelBackgroundColor=default;startSize=8;endArrow=ERmany;endFill=0;endSize=8;" parent="1" source="gONZldmsj2n86TQ6euHQ-55" target="gONZldmsj2n86TQ6euHQ-1" edge="1">
          <mxGeometry relative="1" as="geometry" />
        </mxCell>
        <mxCell id="gONZldmsj2n86TQ6euHQ-55" value="Has" style="rhombus;whiteSpace=wrap;html=1;rounded=0;strokeColor=default;align=center;verticalAlign=middle;fontFamily=Helvetica;fontSize=12;fontColor=default;labelBackgroundColor=default;fillColor=default;" parent="1" vertex="1">
          <mxGeometry x="75" y="-202" width="80" height="80" as="geometry" />
        </mxCell>
      </root>
    </mxGraphModel>
  </diagram>
  <diagram id="R2lEEEUBdFMjLlhIrx00" name="Database">
    <mxGraphModel dx="1339" dy="759" grid="1" gridSize="10" guides="1" tooltips="1" connect="1" arrows="1" fold="1" page="1" pageScale="1" pageWidth="850" pageHeight="1100" math="0" shadow="0" extFonts="Permanent Marker^https://fonts.googleapis.com/css?family=Permanent+Marker">
      <root>
        <mxCell id="0" />
        <mxCell id="1" parent="0" />
        <mxCell id="C-vyLk0tnHw3VtMMgP7b-23" value="Conference" style="shape=table;startSize=30;container=1;collapsible=1;childLayout=tableLayout;fixedRows=1;rowLines=0;fontStyle=1;align=center;resizeLast=1;" parent="1" vertex="1">
          <mxGeometry x="100" y="120" width="250" height="240" as="geometry" />
        </mxCell>
        <mxCell id="C-vyLk0tnHw3VtMMgP7b-24" value="" style="shape=partialRectangle;collapsible=0;dropTarget=0;pointerEvents=0;fillColor=none;points=[[0,0.5],[1,0.5]];portConstraint=eastwest;top=0;left=0;right=0;bottom=1;" parent="C-vyLk0tnHw3VtMMgP7b-23" vertex="1">
          <mxGeometry y="30" width="250" height="30" as="geometry" />
        </mxCell>
        <mxCell id="C-vyLk0tnHw3VtMMgP7b-25" value="PK" style="shape=partialRectangle;overflow=hidden;connectable=0;fillColor=none;top=0;left=0;bottom=0;right=0;fontStyle=1;" parent="C-vyLk0tnHw3VtMMgP7b-24" vertex="1">
          <mxGeometry width="30" height="30" as="geometry">
            <mxRectangle width="30" height="30" as="alternateBounds" />
          </mxGeometry>
        </mxCell>
        <mxCell id="C-vyLk0tnHw3VtMMgP7b-26" value="id: int NOT NULL" style="shape=partialRectangle;overflow=hidden;connectable=0;fillColor=none;top=0;left=0;bottom=0;right=0;align=left;spacingLeft=6;fontStyle=5;" parent="C-vyLk0tnHw3VtMMgP7b-24" vertex="1">
          <mxGeometry x="30" width="220" height="30" as="geometry">
            <mxRectangle width="220" height="30" as="alternateBounds" />
          </mxGeometry>
        </mxCell>
        <mxCell id="C-vyLk0tnHw3VtMMgP7b-27" value="" style="shape=partialRectangle;collapsible=0;dropTarget=0;pointerEvents=0;fillColor=none;points=[[0,0.5],[1,0.5]];portConstraint=eastwest;top=0;left=0;right=0;bottom=0;" parent="C-vyLk0tnHw3VtMMgP7b-23" vertex="1">
          <mxGeometry y="60" width="250" height="30" as="geometry" />
        </mxCell>
        <mxCell id="C-vyLk0tnHw3VtMMgP7b-28" value="" style="shape=partialRectangle;overflow=hidden;connectable=0;fillColor=none;top=0;left=0;bottom=0;right=0;" parent="C-vyLk0tnHw3VtMMgP7b-27" vertex="1">
          <mxGeometry width="30" height="30" as="geometry">
            <mxRectangle width="30" height="30" as="alternateBounds" />
          </mxGeometry>
        </mxCell>
        <mxCell id="C-vyLk0tnHw3VtMMgP7b-29" value="name: char(255) NOT NULL" style="shape=partialRectangle;overflow=hidden;connectable=0;fillColor=none;top=0;left=0;bottom=0;right=0;align=left;spacingLeft=6;" parent="C-vyLk0tnHw3VtMMgP7b-27" vertex="1">
          <mxGeometry x="30" width="220" height="30" as="geometry">
            <mxRectangle width="220" height="30" as="alternateBounds" />
          </mxGeometry>
        </mxCell>
        <mxCell id="7fhSMs6iGLSrcOzs1zj1-34" style="shape=partialRectangle;collapsible=0;dropTarget=0;pointerEvents=0;fillColor=none;points=[[0,0.5],[1,0.5]];portConstraint=eastwest;top=0;left=0;right=0;bottom=0;" parent="C-vyLk0tnHw3VtMMgP7b-23" vertex="1">
          <mxGeometry y="90" width="250" height="30" as="geometry" />
        </mxCell>
        <mxCell id="7fhSMs6iGLSrcOzs1zj1-35" style="shape=partialRectangle;overflow=hidden;connectable=0;fillColor=none;top=0;left=0;bottom=0;right=0;" parent="7fhSMs6iGLSrcOzs1zj1-34" vertex="1">
          <mxGeometry width="30" height="30" as="geometry">
            <mxRectangle width="30" height="30" as="alternateBounds" />
          </mxGeometry>
        </mxCell>
        <mxCell id="7fhSMs6iGLSrcOzs1zj1-36" value="location: char(255) NOT NULL" style="shape=partialRectangle;overflow=hidden;connectable=0;fillColor=none;top=0;left=0;bottom=0;right=0;align=left;spacingLeft=6;" parent="7fhSMs6iGLSrcOzs1zj1-34" vertex="1">
          <mxGeometry x="30" width="220" height="30" as="geometry">
            <mxRectangle width="220" height="30" as="alternateBounds" />
          </mxGeometry>
        </mxCell>
        <mxCell id="7fhSMs6iGLSrcOzs1zj1-31" style="shape=partialRectangle;collapsible=0;dropTarget=0;pointerEvents=0;fillColor=none;points=[[0,0.5],[1,0.5]];portConstraint=eastwest;top=0;left=0;right=0;bottom=0;" parent="C-vyLk0tnHw3VtMMgP7b-23" vertex="1">
          <mxGeometry y="120" width="250" height="30" as="geometry" />
        </mxCell>
        <mxCell id="7fhSMs6iGLSrcOzs1zj1-32" style="shape=partialRectangle;overflow=hidden;connectable=0;fillColor=none;top=0;left=0;bottom=0;right=0;" parent="7fhSMs6iGLSrcOzs1zj1-31" vertex="1">
          <mxGeometry width="30" height="30" as="geometry">
            <mxRectangle width="30" height="30" as="alternateBounds" />
          </mxGeometry>
        </mxCell>
        <mxCell id="7fhSMs6iGLSrcOzs1zj1-33" value="startDate: timestamp NOT NULL" style="shape=partialRectangle;overflow=hidden;connectable=0;fillColor=none;top=0;left=0;bottom=0;right=0;align=left;spacingLeft=6;" parent="7fhSMs6iGLSrcOzs1zj1-31" vertex="1">
          <mxGeometry x="30" width="220" height="30" as="geometry">
            <mxRectangle width="220" height="30" as="alternateBounds" />
          </mxGeometry>
        </mxCell>
        <mxCell id="7fhSMs6iGLSrcOzs1zj1-28" style="shape=partialRectangle;collapsible=0;dropTarget=0;pointerEvents=0;fillColor=none;points=[[0,0.5],[1,0.5]];portConstraint=eastwest;top=0;left=0;right=0;bottom=0;" parent="C-vyLk0tnHw3VtMMgP7b-23" vertex="1">
          <mxGeometry y="150" width="250" height="30" as="geometry" />
        </mxCell>
        <mxCell id="7fhSMs6iGLSrcOzs1zj1-29" style="shape=partialRectangle;overflow=hidden;connectable=0;fillColor=none;top=0;left=0;bottom=0;right=0;" parent="7fhSMs6iGLSrcOzs1zj1-28" vertex="1">
          <mxGeometry width="30" height="30" as="geometry">
            <mxRectangle width="30" height="30" as="alternateBounds" />
          </mxGeometry>
        </mxCell>
        <mxCell id="7fhSMs6iGLSrcOzs1zj1-30" value="endDate: timestamp" style="shape=partialRectangle;overflow=hidden;connectable=0;fillColor=none;top=0;left=0;bottom=0;right=0;align=left;spacingLeft=6;" parent="7fhSMs6iGLSrcOzs1zj1-28" vertex="1">
          <mxGeometry x="30" width="220" height="30" as="geometry">
            <mxRectangle width="220" height="30" as="alternateBounds" />
          </mxGeometry>
        </mxCell>
        <mxCell id="7fhSMs6iGLSrcOzs1zj1-25" style="shape=partialRectangle;collapsible=0;dropTarget=0;pointerEvents=0;fillColor=none;points=[[0,0.5],[1,0.5]];portConstraint=eastwest;top=0;left=0;right=0;bottom=0;" parent="C-vyLk0tnHw3VtMMgP7b-23" vertex="1">
          <mxGeometry y="180" width="250" height="30" as="geometry" />
        </mxCell>
        <mxCell id="7fhSMs6iGLSrcOzs1zj1-26" style="shape=partialRectangle;overflow=hidden;connectable=0;fillColor=none;top=0;left=0;bottom=0;right=0;" parent="7fhSMs6iGLSrcOzs1zj1-25" vertex="1">
          <mxGeometry width="30" height="30" as="geometry">
            <mxRectangle width="30" height="30" as="alternateBounds" />
          </mxGeometry>
        </mxCell>
        <mxCell id="7fhSMs6iGLSrcOzs1zj1-27" value="website: text" style="shape=partialRectangle;overflow=hidden;connectable=0;fillColor=none;top=0;left=0;bottom=0;right=0;align=left;spacingLeft=6;" parent="7fhSMs6iGLSrcOzs1zj1-25" vertex="1">
          <mxGeometry x="30" width="220" height="30" as="geometry">
            <mxRectangle width="220" height="30" as="alternateBounds" />
          </mxGeometry>
        </mxCell>
        <mxCell id="7fhSMs6iGLSrcOzs1zj1-22" style="shape=partialRectangle;collapsible=0;dropTarget=0;pointerEvents=0;fillColor=none;points=[[0,0.5],[1,0.5]];portConstraint=eastwest;top=0;left=0;right=0;bottom=0;" parent="C-vyLk0tnHw3VtMMgP7b-23" vertex="1">
          <mxGeometry y="210" width="250" height="30" as="geometry" />
        </mxCell>
        <mxCell id="7fhSMs6iGLSrcOzs1zj1-23" style="shape=partialRectangle;overflow=hidden;connectable=0;fillColor=none;top=0;left=0;bottom=0;right=0;" parent="7fhSMs6iGLSrcOzs1zj1-22" vertex="1">
          <mxGeometry width="30" height="30" as="geometry">
            <mxRectangle width="30" height="30" as="alternateBounds" />
          </mxGeometry>
        </mxCell>
        <mxCell id="7fhSMs6iGLSrcOzs1zj1-24" value="description: text" style="shape=partialRectangle;overflow=hidden;connectable=0;fillColor=none;top=0;left=0;bottom=0;right=0;align=left;spacingLeft=6;" parent="7fhSMs6iGLSrcOzs1zj1-22" vertex="1">
          <mxGeometry x="30" width="220" height="30" as="geometry">
            <mxRectangle width="220" height="30" as="alternateBounds" />
          </mxGeometry>
        </mxCell>
        <mxCell id="k7lutMfjUnospZzb8D3c-29" value="Topic" style="shape=table;startSize=30;container=1;collapsible=1;childLayout=tableLayout;fixedRows=1;rowLines=0;fontStyle=1;align=center;resizeLast=1;html=1;" parent="1" vertex="1">
          <mxGeometry x="450" y="550" width="190" height="90" as="geometry" />
        </mxCell>
        <mxCell id="k7lutMfjUnospZzb8D3c-30" value="" style="shape=tableRow;horizontal=0;startSize=0;swimlaneHead=0;swimlaneBody=0;fillColor=none;collapsible=0;dropTarget=0;points=[[0,0.5],[1,0.5]];portConstraint=eastwest;top=0;left=0;right=0;bottom=1;" parent="k7lutMfjUnospZzb8D3c-29" vertex="1">
          <mxGeometry y="30" width="190" height="30" as="geometry" />
        </mxCell>
        <mxCell id="k7lutMfjUnospZzb8D3c-31" value="PK" style="shape=partialRectangle;connectable=0;fillColor=none;top=0;left=0;bottom=0;right=0;fontStyle=1;overflow=hidden;whiteSpace=wrap;html=1;" parent="k7lutMfjUnospZzb8D3c-30" vertex="1">
          <mxGeometry width="30" height="30" as="geometry">
            <mxRectangle width="30" height="30" as="alternateBounds" />
          </mxGeometry>
        </mxCell>
        <mxCell id="k7lutMfjUnospZzb8D3c-32" value="id: int NOT NULL" style="shape=partialRectangle;connectable=0;fillColor=none;top=0;left=0;bottom=0;right=0;align=left;spacingLeft=6;fontStyle=5;overflow=hidden;whiteSpace=wrap;html=1;" parent="k7lutMfjUnospZzb8D3c-30" vertex="1">
          <mxGeometry x="30" width="160" height="30" as="geometry">
            <mxRectangle width="160" height="30" as="alternateBounds" />
          </mxGeometry>
        </mxCell>
        <mxCell id="k7lutMfjUnospZzb8D3c-33" value="" style="shape=tableRow;horizontal=0;startSize=0;swimlaneHead=0;swimlaneBody=0;fillColor=none;collapsible=0;dropTarget=0;points=[[0,0.5],[1,0.5]];portConstraint=eastwest;top=0;left=0;right=0;bottom=0;" parent="k7lutMfjUnospZzb8D3c-29" vertex="1">
          <mxGeometry y="60" width="190" height="30" as="geometry" />
        </mxCell>
        <mxCell id="k7lutMfjUnospZzb8D3c-34" value="" style="shape=partialRectangle;connectable=0;fillColor=none;top=0;left=0;bottom=0;right=0;editable=1;overflow=hidden;whiteSpace=wrap;html=1;" parent="k7lutMfjUnospZzb8D3c-33" vertex="1">
          <mxGeometry width="30" height="30" as="geometry">
            <mxRectangle width="30" height="30" as="alternateBounds" />
          </mxGeometry>
        </mxCell>
        <mxCell id="k7lutMfjUnospZzb8D3c-35" value="name: text NOT NULL" style="shape=partialRectangle;connectable=0;fillColor=none;top=0;left=0;bottom=0;right=0;align=left;spacingLeft=6;overflow=hidden;whiteSpace=wrap;html=1;" parent="k7lutMfjUnospZzb8D3c-33" vertex="1">
          <mxGeometry x="30" width="160" height="30" as="geometry">
            <mxRectangle width="160" height="30" as="alternateBounds" />
          </mxGeometry>
        </mxCell>
        <mxCell id="ND8LImChsMWB9qgOIH8s-1" value="Source" style="shape=table;startSize=30;container=1;collapsible=1;childLayout=tableLayout;fixedRows=1;rowLines=0;fontStyle=1;align=center;resizeLast=1;html=1;" parent="1" vertex="1">
          <mxGeometry x="480" y="350" width="190" height="90" as="geometry" />
        </mxCell>
        <mxCell id="ND8LImChsMWB9qgOIH8s-2" value="" style="shape=tableRow;horizontal=0;startSize=0;swimlaneHead=0;swimlaneBody=0;fillColor=none;collapsible=0;dropTarget=0;points=[[0,0.5],[1,0.5]];portConstraint=eastwest;top=0;left=0;right=0;bottom=1;" parent="ND8LImChsMWB9qgOIH8s-1" vertex="1">
          <mxGeometry y="30" width="190" height="30" as="geometry" />
        </mxCell>
        <mxCell id="ND8LImChsMWB9qgOIH8s-3" value="PK" style="shape=partialRectangle;connectable=0;fillColor=none;top=0;left=0;bottom=0;right=0;fontStyle=1;overflow=hidden;whiteSpace=wrap;html=1;" parent="ND8LImChsMWB9qgOIH8s-2" vertex="1">
          <mxGeometry width="30" height="30" as="geometry">
            <mxRectangle width="30" height="30" as="alternateBounds" />
          </mxGeometry>
        </mxCell>
        <mxCell id="ND8LImChsMWB9qgOIH8s-4" value="id: int NOT NULL" style="shape=partialRectangle;connectable=0;fillColor=none;top=0;left=0;bottom=0;right=0;align=left;spacingLeft=6;fontStyle=5;overflow=hidden;whiteSpace=wrap;html=1;" parent="ND8LImChsMWB9qgOIH8s-2" vertex="1">
          <mxGeometry x="30" width="160" height="30" as="geometry">
            <mxRectangle width="160" height="30" as="alternateBounds" />
          </mxGeometry>
        </mxCell>
        <mxCell id="ND8LImChsMWB9qgOIH8s-5" value="" style="shape=tableRow;horizontal=0;startSize=0;swimlaneHead=0;swimlaneBody=0;fillColor=none;collapsible=0;dropTarget=0;points=[[0,0.5],[1,0.5]];portConstraint=eastwest;top=0;left=0;right=0;bottom=0;" parent="ND8LImChsMWB9qgOIH8s-1" vertex="1">
          <mxGeometry y="60" width="190" height="30" as="geometry" />
        </mxCell>
        <mxCell id="ND8LImChsMWB9qgOIH8s-6" value="" style="shape=partialRectangle;connectable=0;fillColor=none;top=0;left=0;bottom=0;right=0;editable=1;overflow=hidden;whiteSpace=wrap;html=1;" parent="ND8LImChsMWB9qgOIH8s-5" vertex="1">
          <mxGeometry width="30" height="30" as="geometry">
            <mxRectangle width="30" height="30" as="alternateBounds" />
          </mxGeometry>
        </mxCell>
        <mxCell id="ND8LImChsMWB9qgOIH8s-7" value="name: text NOT NULL" style="shape=partialRectangle;connectable=0;fillColor=none;top=0;left=0;bottom=0;right=0;align=left;spacingLeft=6;overflow=hidden;whiteSpace=wrap;html=1;" parent="ND8LImChsMWB9qgOIH8s-5" vertex="1">
          <mxGeometry x="30" width="160" height="30" as="geometry">
            <mxRectangle width="160" height="30" as="alternateBounds" />
          </mxGeometry>
        </mxCell>
        <mxCell id="ND8LImChsMWB9qgOIH8s-8" value="ConferenceSource" style="shape=table;startSize=30;container=1;collapsible=1;childLayout=tableLayout;fixedRows=1;rowLines=0;fontStyle=1;align=center;resizeLast=1;html=1;" parent="1" vertex="1">
          <mxGeometry x="480" y="170" width="190" height="120" as="geometry" />
        </mxCell>
        <mxCell id="1bJjuQ35sUm3M_6S6bQy-4" style="shape=tableRow;horizontal=0;startSize=0;swimlaneHead=0;swimlaneBody=0;fillColor=none;collapsible=0;dropTarget=0;points=[[0,0.5],[1,0.5]];portConstraint=eastwest;top=1;left=0;right=0;bottom=0;fontStyle=5" parent="ND8LImChsMWB9qgOIH8s-8" vertex="1">
          <mxGeometry y="30" width="190" height="30" as="geometry" />
        </mxCell>
        <mxCell id="1bJjuQ35sUm3M_6S6bQy-5" value="&lt;b&gt;PK&lt;/b&gt;" style="shape=partialRectangle;connectable=0;fillColor=none;top=0;left=0;bottom=0;right=0;editable=1;overflow=hidden;whiteSpace=wrap;html=1;" parent="1bJjuQ35sUm3M_6S6bQy-4" vertex="1">
          <mxGeometry width="30" height="30" as="geometry">
            <mxRectangle width="30" height="30" as="alternateBounds" />
          </mxGeometry>
        </mxCell>
        <mxCell id="1bJjuQ35sUm3M_6S6bQy-6" value="&lt;b&gt;&lt;u&gt;source_url: text&lt;/u&gt;&lt;/b&gt;" style="shape=partialRectangle;connectable=0;fillColor=none;top=0;left=0;bottom=0;right=0;align=left;spacingLeft=6;overflow=hidden;whiteSpace=wrap;html=1;shadow=0;" parent="1bJjuQ35sUm3M_6S6bQy-4" vertex="1">
          <mxGeometry x="30" width="160" height="30" as="geometry">
            <mxRectangle width="160" height="30" as="alternateBounds" />
          </mxGeometry>
        </mxCell>
        <mxCell id="ND8LImChsMWB9qgOIH8s-19" style="shape=tableRow;horizontal=0;startSize=0;swimlaneHead=0;swimlaneBody=0;fillColor=none;collapsible=0;dropTarget=0;points=[[0,0.5],[1,0.5]];portConstraint=eastwest;top=0;left=0;right=0;bottom=0;" parent="ND8LImChsMWB9qgOIH8s-8" vertex="1">
          <mxGeometry y="60" width="190" height="30" as="geometry" />
        </mxCell>
        <mxCell id="ND8LImChsMWB9qgOIH8s-20" value="FK" style="shape=partialRectangle;connectable=0;fillColor=none;top=0;left=0;bottom=0;right=0;editable=1;overflow=hidden;whiteSpace=wrap;html=1;" parent="ND8LImChsMWB9qgOIH8s-19" vertex="1">
          <mxGeometry width="30" height="30" as="geometry">
            <mxRectangle width="30" height="30" as="alternateBounds" />
          </mxGeometry>
        </mxCell>
        <mxCell id="ND8LImChsMWB9qgOIH8s-21" value="source_id: int" style="shape=partialRectangle;connectable=0;fillColor=none;top=0;left=0;bottom=0;right=0;align=left;spacingLeft=6;overflow=hidden;whiteSpace=wrap;html=1;" parent="ND8LImChsMWB9qgOIH8s-19" vertex="1">
          <mxGeometry x="30" width="160" height="30" as="geometry">
            <mxRectangle width="160" height="30" as="alternateBounds" />
          </mxGeometry>
        </mxCell>
        <mxCell id="ND8LImChsMWB9qgOIH8s-12" value="" style="shape=tableRow;horizontal=0;startSize=0;swimlaneHead=0;swimlaneBody=0;fillColor=none;collapsible=0;dropTarget=0;points=[[0,0.5],[1,0.5]];portConstraint=eastwest;top=0;left=0;right=0;bottom=0;swimlaneFillColor=default;strokeWidth=12;" parent="ND8LImChsMWB9qgOIH8s-8" vertex="1">
          <mxGeometry y="90" width="190" height="30" as="geometry" />
        </mxCell>
        <mxCell id="ND8LImChsMWB9qgOIH8s-13" value="FK" style="shape=partialRectangle;connectable=0;fillColor=none;top=0;left=0;bottom=0;right=0;editable=1;overflow=hidden;whiteSpace=wrap;html=1;" parent="ND8LImChsMWB9qgOIH8s-12" vertex="1">
          <mxGeometry width="30" height="30" as="geometry">
            <mxRectangle width="30" height="30" as="alternateBounds" />
          </mxGeometry>
        </mxCell>
        <mxCell id="ND8LImChsMWB9qgOIH8s-14" value="conference_id: int" style="shape=partialRectangle;connectable=0;fillColor=none;top=0;left=0;bottom=0;right=0;align=left;spacingLeft=6;overflow=hidden;whiteSpace=wrap;html=1;" parent="ND8LImChsMWB9qgOIH8s-12" vertex="1">
          <mxGeometry x="30" width="160" height="30" as="geometry">
            <mxRectangle width="160" height="30" as="alternateBounds" />
          </mxGeometry>
        </mxCell>
        <mxCell id="1bJjuQ35sUm3M_6S6bQy-1" style="edgeStyle=none;curved=1;rounded=0;orthogonalLoop=1;jettySize=auto;html=1;entryX=0;entryY=0.5;entryDx=0;entryDy=0;strokeColor=default;align=center;verticalAlign=middle;fontFamily=Helvetica;fontSize=12;fontColor=default;labelBackgroundColor=default;startSize=8;endArrow=ERone;endFill=0;endSize=8;exitX=1;exitY=0.5;exitDx=0;exitDy=0;startArrow=ERmany;startFill=0;" parent="1" source="C-vyLk0tnHw3VtMMgP7b-24" target="ND8LImChsMWB9qgOIH8s-12" edge="1">
          <mxGeometry relative="1" as="geometry">
            <Array as="points">
              <mxPoint x="420" y="160" />
              <mxPoint x="420" y="190" />
              <mxPoint x="420" y="275" />
            </Array>
          </mxGeometry>
        </mxCell>
        <mxCell id="1bJjuQ35sUm3M_6S6bQy-3" style="edgeStyle=none;curved=1;rounded=0;orthogonalLoop=1;jettySize=auto;html=1;entryX=1;entryY=0.5;entryDx=0;entryDy=0;strokeColor=default;align=center;verticalAlign=middle;fontFamily=Helvetica;fontSize=12;fontColor=default;labelBackgroundColor=default;startSize=8;endArrow=ERzeroToMany;endFill=0;endSize=8;exitX=1;exitY=0.5;exitDx=0;exitDy=0;startArrow=ERmany;startFill=0;" parent="1" source="ND8LImChsMWB9qgOIH8s-19" target="ND8LImChsMWB9qgOIH8s-2" edge="1">
          <mxGeometry relative="1" as="geometry">
            <Array as="points">
              <mxPoint x="760" y="250" />
              <mxPoint x="730" y="400" />
            </Array>
          </mxGeometry>
        </mxCell>
        <mxCell id="1bJjuQ35sUm3M_6S6bQy-8" value="ConferenceTopic" style="shape=table;startSize=30;container=1;collapsible=1;childLayout=tableLayout;fixedRows=1;rowLines=0;fontStyle=1;align=center;resizeLast=1;html=1;" parent="1" vertex="1">
          <mxGeometry x="170" y="430" width="190" height="90" as="geometry" />
        </mxCell>
        <mxCell id="1bJjuQ35sUm3M_6S6bQy-12" value="" style="shape=tableRow;horizontal=0;startSize=0;swimlaneHead=0;swimlaneBody=0;fillColor=none;collapsible=0;dropTarget=0;points=[[0,0.5],[1,0.5]];portConstraint=eastwest;top=0;left=0;right=0;bottom=0;" parent="1bJjuQ35sUm3M_6S6bQy-8" vertex="1">
          <mxGeometry y="30" width="190" height="30" as="geometry" />
        </mxCell>
        <mxCell id="1bJjuQ35sUm3M_6S6bQy-13" value="FK" style="shape=partialRectangle;connectable=0;fillColor=none;top=0;left=0;bottom=0;right=0;editable=1;overflow=hidden;whiteSpace=wrap;html=1;" parent="1bJjuQ35sUm3M_6S6bQy-12" vertex="1">
          <mxGeometry width="30" height="30" as="geometry">
            <mxRectangle width="30" height="30" as="alternateBounds" />
          </mxGeometry>
        </mxCell>
        <mxCell id="1bJjuQ35sUm3M_6S6bQy-14" value="conference_id: int" style="shape=partialRectangle;connectable=0;fillColor=none;top=0;left=0;bottom=0;right=0;align=left;spacingLeft=6;overflow=hidden;whiteSpace=wrap;html=1;" parent="1bJjuQ35sUm3M_6S6bQy-12" vertex="1">
          <mxGeometry x="30" width="160" height="30" as="geometry">
            <mxRectangle width="160" height="30" as="alternateBounds" />
          </mxGeometry>
        </mxCell>
        <mxCell id="6dMd3Y0yRV_O7aZT-ac3-2" style="shape=tableRow;horizontal=0;startSize=0;swimlaneHead=0;swimlaneBody=0;fillColor=none;collapsible=0;dropTarget=0;points=[[0,0.5],[1,0.5]];portConstraint=eastwest;top=0;left=0;right=0;bottom=0;" parent="1bJjuQ35sUm3M_6S6bQy-8" vertex="1">
          <mxGeometry y="60" width="190" height="30" as="geometry" />
        </mxCell>
        <mxCell id="6dMd3Y0yRV_O7aZT-ac3-3" value="FK" style="shape=partialRectangle;connectable=0;fillColor=none;top=0;left=0;bottom=0;right=0;editable=1;overflow=hidden;whiteSpace=wrap;html=1;" parent="6dMd3Y0yRV_O7aZT-ac3-2" vertex="1">
          <mxGeometry width="30" height="30" as="geometry">
            <mxRectangle width="30" height="30" as="alternateBounds" />
          </mxGeometry>
        </mxCell>
        <mxCell id="6dMd3Y0yRV_O7aZT-ac3-4" value="topic_id: int" style="shape=partialRectangle;connectable=0;fillColor=none;top=0;left=0;bottom=0;right=0;align=left;spacingLeft=6;overflow=hidden;whiteSpace=wrap;html=1;" parent="6dMd3Y0yRV_O7aZT-ac3-2" vertex="1">
          <mxGeometry x="30" width="160" height="30" as="geometry">
            <mxRectangle width="160" height="30" as="alternateBounds" />
          </mxGeometry>
        </mxCell>
        <mxCell id="6dMd3Y0yRV_O7aZT-ac3-1" style="edgeStyle=orthogonalEdgeStyle;rounded=0;orthogonalLoop=1;jettySize=auto;html=1;endArrow=ERzeroToMany;endFill=0;startArrow=ERzeroToMany;startFill=0;" parent="1" source="C-vyLk0tnHw3VtMMgP7b-24" target="1bJjuQ35sUm3M_6S6bQy-12" edge="1">
          <mxGeometry relative="1" as="geometry">
            <Array as="points">
              <mxPoint x="50" y="165" />
              <mxPoint x="50" y="475" />
            </Array>
          </mxGeometry>
        </mxCell>
        <mxCell id="6dMd3Y0yRV_O7aZT-ac3-5" style="edgeStyle=orthogonalEdgeStyle;rounded=0;orthogonalLoop=1;jettySize=auto;html=1;entryX=0;entryY=0.5;entryDx=0;entryDy=0;exitX=1;exitY=0.5;exitDx=0;exitDy=0;startArrow=ERzeroToMany;startFill=0;endArrow=ERzeroToMany;endFill=0;" parent="1" source="6dMd3Y0yRV_O7aZT-ac3-2" target="k7lutMfjUnospZzb8D3c-30" edge="1">
          <mxGeometry relative="1" as="geometry" />
        </mxCell>
      </root>
    </mxGraphModel>
  </diagram>
  <diagram id="kQ-mqdr3zUY0Rm-Gkqsy" name="Class">
    <mxGraphModel dx="1873" dy="453" grid="1" gridSize="10" guides="1" tooltips="1" connect="1" arrows="1" fold="1" page="1" pageScale="1" pageWidth="850" pageHeight="1100" math="0" shadow="0">
      <root>
        <mxCell id="0" />
        <mxCell id="1" parent="0" />
        <mxCell id="CCIcio9TjTW-XqLcBK71-9" value="Factory" style="swimlane;fontStyle=1;align=center;verticalAlign=top;childLayout=stackLayout;horizontal=1;startSize=26;horizontalStack=0;resizeParent=1;resizeParentMax=0;resizeLast=0;collapsible=1;marginBottom=0;whiteSpace=wrap;html=1;" parent="1" vertex="1">
          <mxGeometry x="310" y="370" width="160" height="140" as="geometry" />
        </mxCell>
        <mxCell id="CCIcio9TjTW-XqLcBK71-10" value="-&amp;nbsp;" style="text;strokeColor=none;fillColor=none;align=left;verticalAlign=top;spacingLeft=4;spacingRight=4;overflow=hidden;rotatable=0;points=[[0,0.5],[1,0.5]];portConstraint=eastwest;whiteSpace=wrap;html=1;" parent="CCIcio9TjTW-XqLcBK71-9" vertex="1">
          <mxGeometry y="26" width="160" height="26" as="geometry" />
        </mxCell>
        <mxCell id="CCIcio9TjTW-XqLcBK71-11" value="" style="line;strokeWidth=1;fillColor=none;align=left;verticalAlign=middle;spacingTop=-1;spacingLeft=3;spacingRight=3;rotatable=0;labelPosition=right;points=[];portConstraint=eastwest;strokeColor=inherit;" parent="CCIcio9TjTW-XqLcBK71-9" vertex="1">
          <mxGeometry y="52" width="160" height="8" as="geometry" />
        </mxCell>
        <mxCell id="CCIcio9TjTW-XqLcBK71-12" value="+ add_crawler():&lt;div&gt;+ save():&lt;br&gt;&lt;/div&gt;&lt;div&gt;+process_list():&lt;/div&gt;&lt;div&gt;+process_details():&lt;/div&gt;" style="text;strokeColor=none;fillColor=none;align=left;verticalAlign=top;spacingLeft=4;spacingRight=4;overflow=hidden;rotatable=0;points=[[0,0.5],[1,0.5]];portConstraint=eastwest;whiteSpace=wrap;html=1;" parent="CCIcio9TjTW-XqLcBK71-9" vertex="1">
          <mxGeometry y="60" width="160" height="80" as="geometry" />
        </mxCell>
        <mxCell id="u8qVbI0cD_kpK54c0MH1-2" style="edgeStyle=orthogonalEdgeStyle;rounded=0;orthogonalLoop=1;jettySize=auto;html=1;endArrow=diamond;endFill=0;exitX=0.458;exitY=0.014;exitDx=0;exitDy=0;exitPerimeter=0;" parent="1" source="CCIcio9TjTW-XqLcBK71-13" target="CCIcio9TjTW-XqLcBK71-12" edge="1">
          <mxGeometry relative="1" as="geometry">
            <Array as="points">
              <mxPoint x="150" y="532" />
              <mxPoint x="150" y="430" />
            </Array>
          </mxGeometry>
        </mxCell>
        <mxCell id="CCIcio9TjTW-XqLcBK71-13" value="&lt;p style=&quot;margin:0px;margin-top:4px;text-align:center;&quot;&gt;&lt;i&gt;&amp;lt;&amp;lt;Interface&amp;gt;&amp;gt;&lt;/i&gt;&lt;br&gt;&lt;b&gt;ICrawl&lt;/b&gt;&lt;/p&gt;&lt;hr size=&quot;1&quot; style=&quot;border-style:solid;&quot;&gt;&lt;p style=&quot;margin:0px;margin-left:4px;&quot;&gt;&lt;span style=&quot;background-color: initial;&quot;&gt;+ get_list():&amp;nbsp;&lt;/span&gt;&lt;br&gt;&lt;/p&gt;&lt;p style=&quot;margin:0px;margin-left:4px;&quot;&gt;&lt;span style=&quot;background-color: initial;&quot;&gt;+ get_details():&lt;/span&gt;&lt;/p&gt;&lt;p style=&quot;margin:0px;margin-left:4px;&quot;&gt;&lt;span style=&quot;background-color: initial;&quot;&gt;+ check_duplicate():&lt;/span&gt;&lt;/p&gt;&lt;p style=&quot;margin:0px;margin-left:4px;&quot;&gt;+ cache():&lt;/p&gt;" style="verticalAlign=top;align=left;overflow=fill;html=1;whiteSpace=wrap;" parent="1" vertex="1">
          <mxGeometry x="60" y="530" width="190" height="140" as="geometry" />
        </mxCell>
        <mxCell id="u8qVbI0cD_kpK54c0MH1-1" style="edgeStyle=orthogonalEdgeStyle;rounded=0;orthogonalLoop=1;jettySize=auto;html=1;endArrow=diamond;endFill=0;exitX=0.5;exitY=0;exitDx=0;exitDy=0;" parent="1" source="LOdf1JhlUkXynZxXUH5k-2" target="CCIcio9TjTW-XqLcBK71-12" edge="1">
          <mxGeometry relative="1" as="geometry">
            <Array as="points">
              <mxPoint x="615" y="430" />
            </Array>
            <mxPoint x="650" y="490" as="sourcePoint" />
          </mxGeometry>
        </mxCell>
        <mxCell id="CCIcio9TjTW-XqLcBK71-41" style="edgeStyle=orthogonalEdgeStyle;rounded=0;orthogonalLoop=1;jettySize=auto;html=1;endArrow=block;endFill=0;entryX=0.5;entryY=1;entryDx=0;entryDy=0;" parent="1" source="CCIcio9TjTW-XqLcBK71-37" target="LOdf1JhlUkXynZxXUH5k-2" edge="1">
          <mxGeometry relative="1" as="geometry">
            <mxPoint x="670" y="655" as="targetPoint" />
          </mxGeometry>
        </mxCell>
        <mxCell id="CCIcio9TjTW-XqLcBK71-37" value="SQLite" style="swimlane;fontStyle=1;align=center;verticalAlign=top;childLayout=stackLayout;horizontal=1;startSize=26;horizontalStack=0;resizeParent=1;resizeParentMax=0;resizeLast=0;collapsible=1;marginBottom=0;whiteSpace=wrap;html=1;" parent="1" vertex="1">
          <mxGeometry x="410" y="790" width="160" height="52" as="geometry" />
        </mxCell>
        <mxCell id="CCIcio9TjTW-XqLcBK71-43" style="edgeStyle=orthogonalEdgeStyle;rounded=0;orthogonalLoop=1;jettySize=auto;html=1;endArrow=block;endFill=0;" parent="1" source="CCIcio9TjTW-XqLcBK71-42" target="CCIcio9TjTW-XqLcBK71-13" edge="1">
          <mxGeometry relative="1" as="geometry" />
        </mxCell>
        <mxCell id="CCIcio9TjTW-XqLcBK71-42" value="Website1Crawler" style="swimlane;fontStyle=1;align=center;verticalAlign=top;childLayout=stackLayout;horizontal=1;startSize=26;horizontalStack=0;resizeParent=1;resizeParentMax=0;resizeLast=0;collapsible=1;marginBottom=0;whiteSpace=wrap;html=1;" parent="1" vertex="1">
          <mxGeometry x="-50" y="790" width="160" height="52" as="geometry" />
        </mxCell>
        <mxCell id="CCIcio9TjTW-XqLcBK71-44" value="Website2Crawler" style="swimlane;fontStyle=1;align=center;verticalAlign=top;childLayout=stackLayout;horizontal=1;startSize=26;horizontalStack=0;resizeParent=1;resizeParentMax=0;resizeLast=0;collapsible=1;marginBottom=0;whiteSpace=wrap;html=1;" parent="1" vertex="1">
          <mxGeometry x="200" y="790" width="160" height="52" as="geometry" />
        </mxCell>
        <mxCell id="CCIcio9TjTW-XqLcBK71-45" style="edgeStyle=orthogonalEdgeStyle;rounded=0;orthogonalLoop=1;jettySize=auto;html=1;endArrow=block;endFill=0;" parent="1" source="CCIcio9TjTW-XqLcBK71-44" target="CCIcio9TjTW-XqLcBK71-13" edge="1">
          <mxGeometry relative="1" as="geometry">
            <mxPoint x="435" y="680" as="targetPoint" />
          </mxGeometry>
        </mxCell>
        <mxCell id="CCIcio9TjTW-XqLcBK71-47" value="" style="edgeStyle=orthogonalEdgeStyle;rounded=0;orthogonalLoop=1;jettySize=auto;html=1;endArrow=block;endFill=0;entryX=0.5;entryY=1;entryDx=0;entryDy=0;" parent="1" source="CCIcio9TjTW-XqLcBK71-46" target="LOdf1JhlUkXynZxXUH5k-2" edge="1">
          <mxGeometry relative="1" as="geometry">
            <mxPoint x="780" y="660" as="targetPoint" />
          </mxGeometry>
        </mxCell>
        <mxCell id="CCIcio9TjTW-XqLcBK71-46" value="AnotherDatabase" style="swimlane;fontStyle=1;align=center;verticalAlign=top;childLayout=stackLayout;horizontal=1;startSize=26;horizontalStack=0;resizeParent=1;resizeParentMax=0;resizeLast=0;collapsible=1;marginBottom=0;whiteSpace=wrap;html=1;" parent="1" vertex="1">
          <mxGeometry x="660" y="790" width="160" height="52" as="geometry" />
        </mxCell>
        <mxCell id="-OD6gs_J8piTcdnl0ySC-3" style="edgeStyle=orthogonalEdgeStyle;rounded=0;orthogonalLoop=1;jettySize=auto;html=1;endArrow=none;endFill=0;startArrow=block;startFill=0;entryX=1;entryY=0.5;entryDx=0;entryDy=0;" parent="1" source="LOdf1JhlUkXynZxXUH5k-6" target="LOdf1JhlUkXynZxXUH5k-2" edge="1">
          <mxGeometry relative="1" as="geometry">
            <mxPoint x="840" y="610" as="sourcePoint" />
            <mxPoint x="765" y="577.5" as="targetPoint" />
          </mxGeometry>
        </mxCell>
        <mxCell id="LOdf1JhlUkXynZxXUH5k-2" value="&lt;p style=&quot;margin:0px;margin-top:4px;text-align:center;&quot;&gt;&lt;i&gt;&amp;lt;&amp;lt;Interface&amp;gt;&amp;gt;&lt;/i&gt;&lt;br&gt;&lt;b&gt;IDataClient&lt;/b&gt;&lt;/p&gt;&lt;hr size=&quot;1&quot; style=&quot;border-style:solid;&quot;&gt;&lt;p style=&quot;margin: 0px 0px 0px 4px;&quot;&gt;&lt;span style=&quot;background-color: initial;&quot;&gt;+ finds():&lt;/span&gt;&lt;/p&gt;&lt;p style=&quot;margin: 0px 0px 0px 4px;&quot;&gt;+ update():&lt;/p&gt;&lt;p style=&quot;margin: 0px 0px 0px 4px;&quot;&gt;+ insert_conference():&lt;/p&gt;&lt;p style=&quot;margin: 0px 0px 0px 4px;&quot;&gt;+ insert_source():&lt;/p&gt;&lt;p style=&quot;margin: 0px 0px 0px 4px;&quot;&gt;+ insert_topic():&lt;/p&gt;&lt;p style=&quot;margin: 0px 0px 0px 4px;&quot;&gt;+ insert_conference_topic():&lt;/p&gt;" style="verticalAlign=top;align=left;overflow=fill;html=1;whiteSpace=wrap;" vertex="1" parent="1">
          <mxGeometry x="520" y="530" width="190" height="160" as="geometry" />
        </mxCell>
        <mxCell id="LOdf1JhlUkXynZxXUH5k-6" value="&lt;p style=&quot;margin:0px;margin-top:4px;text-align:center;&quot;&gt;&lt;i&gt;&amp;lt;&amp;lt;Interface&amp;gt;&amp;gt;&lt;/i&gt;&lt;br&gt;&lt;b&gt;IDataStore&lt;/b&gt;&lt;/p&gt;&lt;hr size=&quot;1&quot; style=&quot;border-style:solid;&quot;&gt;&lt;p style=&quot;margin: 0px 0px 0px 4px;&quot;&gt;&lt;span style=&quot;background-color: initial;&quot;&gt;+ connect():&lt;/span&gt;&lt;br&gt;&lt;/p&gt;&lt;p style=&quot;margin: 0px 0px 0px 4px;&quot;&gt;+ execute_query():&lt;/p&gt;&lt;p style=&quot;margin: 0px 0px 0px 4px;&quot;&gt;+ close():&lt;/p&gt;&lt;p style=&quot;margin: 0px 0px 0px 4px;&quot;&gt;+ is_connected():&lt;/p&gt;" style="verticalAlign=top;align=left;overflow=fill;html=1;whiteSpace=wrap;" vertex="1" parent="1">
          <mxGeometry x="770" y="550" width="190" height="120" as="geometry" />
        </mxCell>
        <mxCell id="LOdf1JhlUkXynZxXUH5k-7" style="edgeStyle=orthogonalEdgeStyle;rounded=0;orthogonalLoop=1;jettySize=auto;html=1;exitX=0.5;exitY=1;exitDx=0;exitDy=0;" edge="1" parent="1" source="LOdf1JhlUkXynZxXUH5k-6" target="LOdf1JhlUkXynZxXUH5k-6">
          <mxGeometry relative="1" as="geometry" />
        </mxCell>
      </root>
    </mxGraphModel>
  </diagram>
  <diagram id="2IadWMQ8Ui9AU76nq2p9" name="Page-4">
    <mxGraphModel dx="638" dy="361" grid="1" gridSize="10" guides="1" tooltips="1" connect="1" arrows="1" fold="1" page="1" pageScale="1" pageWidth="850" pageHeight="1100" math="0" shadow="0">
      <root>
        <mxCell id="0" />
        <mxCell id="1" parent="0" />
        <mxCell id="zkFzSPSqc7TOgsL99a0Z-29" value="" style="strokeWidth=2;html=1;shape=mxgraph.flowchart.annotation_2;align=left;labelPosition=right;pointerEvents=1;direction=south;" vertex="1" parent="1">
          <mxGeometry x="260" y="190" width="200" height="50" as="geometry" />
        </mxCell>
        <mxCell id="zkFzSPSqc7TOgsL99a0Z-1" value="Cào dữ liệu hội nghị IT" style="rounded=0;whiteSpace=wrap;html=1;" vertex="1" parent="1">
          <mxGeometry x="290" y="137" width="140" height="60" as="geometry" />
        </mxCell>
        <mxCell id="zkFzSPSqc7TOgsL99a0Z-8" value="Quản lý dữ liệu" style="rounded=0;whiteSpace=wrap;html=1;" vertex="1" parent="1">
          <mxGeometry x="400" y="230" width="120" height="60" as="geometry" />
        </mxCell>
        <mxCell id="zkFzSPSqc7TOgsL99a0Z-9" value="Xử lý dữ liệu" style="rounded=0;whiteSpace=wrap;html=1;" vertex="1" parent="1">
          <mxGeometry x="210" y="230" width="120" height="60" as="geometry" />
        </mxCell>
        <mxCell id="zkFzSPSqc7TOgsL99a0Z-10" value="Lấy dữ liệu thô" style="rounded=0;whiteSpace=wrap;html=1;" vertex="1" parent="1">
          <mxGeometry x="210" y="310" width="120" height="60" as="geometry" />
        </mxCell>
        <mxCell id="zkFzSPSqc7TOgsL99a0Z-11" value="Định dạng dữ liệu" style="rounded=0;whiteSpace=wrap;html=1;" vertex="1" parent="1">
          <mxGeometry x="210" y="390" width="120" height="60" as="geometry" />
        </mxCell>
        <mxCell id="zkFzSPSqc7TOgsL99a0Z-12" value="Nhập xuất dữ liệu" style="rounded=0;whiteSpace=wrap;html=1;" vertex="1" parent="1">
          <mxGeometry x="400" y="310" width="120" height="60" as="geometry" />
        </mxCell>
        <mxCell id="zkFzSPSqc7TOgsL99a0Z-13" value="Bảo trì dữ liệu" style="rounded=0;whiteSpace=wrap;html=1;" vertex="1" parent="1">
          <mxGeometry x="400" y="390" width="120" height="60" as="geometry" />
        </mxCell>
        <mxCell id="zkFzSPSqc7TOgsL99a0Z-21" value="" style="group" vertex="1" connectable="0" parent="1">
          <mxGeometry x="180" y="260" width="30" height="160" as="geometry" />
        </mxCell>
        <mxCell id="zkFzSPSqc7TOgsL99a0Z-19" value="" style="strokeWidth=2;html=1;shape=mxgraph.flowchart.annotation_1;align=left;pointerEvents=1;" vertex="1" parent="zkFzSPSqc7TOgsL99a0Z-21">
          <mxGeometry width="30" height="80" as="geometry" />
        </mxCell>
        <mxCell id="zkFzSPSqc7TOgsL99a0Z-20" value="" style="strokeWidth=2;html=1;shape=mxgraph.flowchart.annotation_1;align=left;pointerEvents=1;" vertex="1" parent="zkFzSPSqc7TOgsL99a0Z-21">
          <mxGeometry y="80" width="30" height="80" as="geometry" />
        </mxCell>
        <mxCell id="zkFzSPSqc7TOgsL99a0Z-22" value="" style="group" vertex="1" connectable="0" parent="1">
          <mxGeometry x="370" y="260" width="30" height="160" as="geometry" />
        </mxCell>
        <mxCell id="zkFzSPSqc7TOgsL99a0Z-23" value="" style="strokeWidth=2;html=1;shape=mxgraph.flowchart.annotation_1;align=left;pointerEvents=1;" vertex="1" parent="zkFzSPSqc7TOgsL99a0Z-22">
          <mxGeometry width="30" height="80" as="geometry" />
        </mxCell>
        <mxCell id="zkFzSPSqc7TOgsL99a0Z-24" value="" style="strokeWidth=2;html=1;shape=mxgraph.flowchart.annotation_1;align=left;pointerEvents=1;" vertex="1" parent="zkFzSPSqc7TOgsL99a0Z-22">
          <mxGeometry y="80" width="30" height="80" as="geometry" />
        </mxCell>
      </root>
    </mxGraphModel>
  </diagram>
</mxfile>
